<svg width="4000" height="300" viewBox="0 0 4000 300" fill="none" xmlns="http://www.w3.org/2000/svg">
<path fill-rule="evenodd" clip-rule="evenodd" d="M0 0H25C25 96.0975 102.902 174 199 174H1903.41H2096.59H3801C3897.1 174 3975 96.0975 3975 0H4000C4000 110.457 3910.46 200 3800 200H2100C2100 200.165 2100 200.329 2100 200.494C2049.63 205.496 2010.25 247.876 2010 299.506C2006.71 299.833 2003.38 300 2000 300C1996.62 300 1993.29 299.833 1990 299.506C1989.75 247.876 1950.37 205.496 1900 200.494C1900 200.387 1900 200.28 1900 200.173L1900 200H200C89.5432 200 0 110.457 0 0Z" fill="black"/>
</svg>
